<svg xmlns="http://www.w3.org/2000/svg" viewBox="0 0 64 64"><rect width="64" height="64" rx="14" fill="#0d1b2a"/><path transform="translate(11.962 48.500) scale(0.052800 -0.052800)" d="M562 542Q562 571 556.5 586.0Q551 601 532.5 607.0Q514 613 476 613Q473 613 473.0 619.0Q473 625 476 625Q500 625 531.5 623.5Q563 622 602 622Q636 622 668.5 623.5Q701 625 725 625Q728 625 728.0 619.0Q728 613 725 613Q690 613 671.5 607.5Q653 602 647.0 587.5Q641 573 641 544V81Q641 52 647.0 37.0Q653 22 671.5 17.0Q690 12 725 12Q728 12 728.0 6.0Q728 0 725 0Q701 0 668.5 1.0Q636 2 602 2Q563 2 531.5 1.0Q500 0 476 0Q473 0 473.0 6.0Q473 12 476 12Q514 12 532.5 17.0Q551 22 556.5 37.0Q562 52 562 81ZM155 314V337H597V314ZM118 81V544Q118 573 112.0 587.5Q106 602 88.0 607.5Q70 613 35 613Q32 613 32.0 619.0Q32 625 35 625Q60 625 91.0 623.5Q122 622 156 622Q196 622 227.5 623.5Q259 625 284 625Q286 625 286.0 619.0Q286 613 284 613Q247 613 228.5 607.0Q210 601 203.5 586.0Q197 571 197 542V81Q197 52 203.0 37.0Q209 22 228.0 17.0Q247 12 284 12Q286 12 286.0 6.0Q286 0 284 0Q258 0 227.0 1.0Q196 2 156 2Q122 2 90.0 1.0Q58 0 33 0Q31 0 31.0 6.0Q31 12 33 12Q69 12 87.5 17.0Q106 22 112.0 37.0Q118 52 118 81Z" fill="#b8965a"/></svg>
